<?xml version="1.0" encoding="UTF-8"?>
<svg xmlns="http://www.w3.org/2000/svg" viewBox="240 230 600 620">
  <defs><style>.cls-1{fill:#a31300;stroke-width:0px;}</style></defs>
  <path class="cls-1" d="M813.36,467.11c-4.08-19.73-18.75-57.91-29.35-75.05-6.94-11.22-15.23-21.31-23.49-31.63-44.27-55.32-104.15-94.73-171-115.63-18.75-5.86-37.36-12.59-57.06-14.45-45.07-4.27-80.07,18.2-115.31,42.92-18.09,12.69-38.15,22.58-54.51,37.66-.19.18-.39.36-.58.54-19.42,18.15-41.67,45.85-53.97,69.49-3.32,6.37-6.04,13.21-9.77,19.35-9.57,15.73-21.59,29.85-31.57,45.33-10.58,16.38-13.56,31.47-18.51,49.7-3.62,13.33-9.06,25.44-8.12,39.66,3.41,51.37,28.23,93.96,50.23,138.27,36.79,74.11,80.33,131.63,158.27,165.47,14.28,6.2,29.45,8.21,44.77,10.04,22.02,2.63,28.32,1.25,53.25-1.58,11.03-1.25,21.69-4.48,32.69-6.02,75.49-10.56,141.05-53.39,190.87-108.49,13.53-14.97,26.53-26.01,34.7-45.11,7.6-17.79,11.52-40.55,18.08-59.87,6.67-19.65,16.26-38.67,16.98-59.8,1.2-34.96-19.51-66.53-26.59-100.79ZM621.07,412.84c-4.84,35.47-7.98,45.91-51.12,72.81-22.75,14.18-45.08,21.16-66.88,7.23-12.51-8-22.58-19.29-33.87-28.94-14.38-12.29-9.42-28.79-13.05-46.14-5.89-28.13,8.35-56.26,31.95-70.06,14.39-8.41,28.72-18.63,46.24-18.11,8.68.26,17.94,1.07,26.21,3.83,10.68,3.56,18.9,11.41,26.66,19.24,15.64,15.79,37.05,36.83,33.87,60.14Z"/>
</svg>