<?xml version="1.0" encoding="UTF-8"?>
<svg id="Capa_1" data-name="Capa 1" xmlns="http://www.w3.org/2000/svg" viewBox="140 462 840 128">
  <defs>
    <style>
      .cls-1 {
        fill: #231c1a;
        stroke-width: 0px;
      }
    </style>
  </defs>
  <g>
    <path class="cls-1" d="M967.73,502.18c-.39-1.9-1.81-5.59-2.83-7.24-.67-1.08-1.47-2.06-2.27-3.05-4.27-5.34-10.05-9.14-16.5-11.16-1.81-.57-3.61-1.21-5.51-1.39-4.35-.41-7.73,1.76-11.13,4.14-1.75,1.22-3.68,2.18-5.26,3.63-.02.02-.04.03-.06.05-1.87,1.75-4.02,4.43-5.21,6.71-.32.62-.58,1.27-.94,1.87-.92,1.52-2.08,2.88-3.05,4.37-1.02,1.58-1.31,3.04-1.79,4.8-.35,1.29-.87,2.45-.78,3.83.33,4.96,2.72,9.07,4.85,13.34,3.55,7.15,7.75,12.7,15.27,15.97,1.38.6,2.84.79,4.32.97,2.12.25,2.73.12,5.14-.15,1.06-.12,2.09-.43,3.15-.58,7.29-1.02,13.61-5.15,18.42-10.47,1.31-1.44,2.56-2.51,3.35-4.35.73-1.72,1.11-3.91,1.75-5.78.64-1.9,1.57-3.73,1.64-5.77.12-3.37-1.88-6.42-2.57-9.73ZM949.18,496.94c-.47,3.42-.77,4.43-4.93,7.03-2.2,1.37-4.35,2.04-6.45.7-1.21-.77-2.18-1.86-3.27-2.79-1.39-1.19-.91-2.78-1.26-4.45-.57-2.72.81-5.43,3.08-6.76,1.39-.81,2.77-1.8,4.46-1.75.84.03,1.73.1,2.53.37,1.03.34,1.82,1.1,2.57,1.86,1.51,1.52,3.58,3.55,3.27,5.8Z"/>
    <g>
      <path class="cls-1" d="M652.38,557.72v-19.76h-23.15v5.6h16.28v3.22c0,4.35-.66,7.69-1.99,10.01-1.33,2.32-3.08,3.93-5.26,4.83-2.18.9-4.54,1.36-7.08,1.36-1.98,0-3.83-.28-5.56-.85-1.73-.56-3.24-1.54-4.54-2.93-1.3-1.38-2.32-3.31-3.05-5.77-.74-2.46-1.1-5.55-1.1-9.28v-10.09c0-5.03.62-8.89,1.87-11.58,1.24-2.68,2.93-4.55,5.04-5.6,2.12-1.04,4.54-1.57,7.25-1.57s5.13.48,7.25,1.44c2.12.96,3.8,2.53,5.04,4.71,1.24,2.18,1.87,5.13,1.87,8.86h7.12c0-3.9-.55-7.19-1.65-9.88-1.1-2.68-2.63-4.86-4.58-6.53-1.95-1.67-4.15-2.87-6.61-3.6-2.46-.73-5.07-1.1-7.84-1.1h-.93c-3.11,0-5.97.42-8.57,1.27-2.6.85-4.86,2.28-6.78,4.28-1.92,2.01-3.41,4.72-4.45,8.14-1.05,3.42-1.57,7.68-1.57,12.76v7.04c0,5.03.54,9.26,1.61,12.68,1.07,3.42,2.59,6.14,4.54,8.14,1.95,2.01,4.21,3.43,6.78,4.28,2.57.85,5.33,1.27,8.27,1.27h.51c3.22,0,6.25-.68,9.07-2.04,2.82-1.36,5.06-3.45,6.7-6.28l1.53,7.46h4.58c-.17-1.19-.31-2.67-.42-4.45-.12-1.78-.17-3.8-.17-6.06Z"/>
      <path class="cls-1" d="M714.16,563.02c-.59-1.56-.89-4.25-.89-8.1,0-2.54-.35-4.86-1.06-6.95-.71-2.09-1.73-3.86-3.05-5.3-1.33-1.44-2.98-2.42-4.96-2.93v-.42c3-.62,5.44-2.26,7.33-4.92,1.89-2.66,2.84-5.77,2.84-9.33,0-3.11-.72-5.78-2.16-8.01-1.44-2.23-3.36-3.96-5.77-5.17-2.4-1.21-5.07-1.82-8.01-1.82h-24.76v58.17h7.38v-25.44h14.67c.96,0,2.02.2,3.18.59,1.16.4,2.28,1.12,3.35,2.16,1.07,1.05,1.95,2.54,2.63,4.49.68,1.95,1.02,4.48,1.02,7.59s.39,5.37,1.19,6.95c.79,1.58,1.79,2.64,3.01,3.18,1.21.54,2.42.81,3.6.81.85,0,1.61-.06,2.29-.17.68-.12,1.21-.26,1.61-.42v-1.95c-1.7-.45-2.84-1.46-3.43-3.01ZM696.39,536.78h-15.35v-20.61h15.94c3.05,0,5.5.85,7.34,2.54,1.84,1.7,2.76,4.13,2.76,7.29s-.95,5.68-2.84,7.72c-1.9,2.03-4.51,3.05-7.84,3.05Z"/>
      <path class="cls-1" d="M749.22,510.07l-19.67,58.17h7.38l4.39-13.57h24.3l4.46,13.57h7.63l-19.76-58.17h-8.73ZM743.22,548.82l9.99-30.87h.34l10.15,30.87h-20.48Z"/>
      <polygon class="cls-1" points="826.65 554.67 826.31 554.67 823 547.63 803.66 510.07 796.12 510.07 796.12 568.24 803.07 568.24 803.07 523.8 803.41 523.8 806.04 529.74 826.05 568.24 833.6 568.24 833.6 510.07 826.65 510.07 826.65 554.67"/>
      <path class="cls-1" d="M871.67,510.07l-19.68,58.17h7.38l4.39-13.57h24.3l4.46,13.57h7.63l-19.76-58.17h-8.73ZM865.67,548.82l9.99-30.87h.34l10.15,30.87h-20.48Z"/>
    </g>
    <g>
      <path class="cls-1" d="M188.48,524.82c.73-2.43,1.75-4.34,3.05-5.72,1.3-1.38,2.8-2.36,4.49-2.93,1.7-.57,3.53-.85,5.51-.85,3.45,0,6.2.58,8.27,1.74,2.06,1.16,3.56,2.96,4.49,5.39.93,2.43,1.4,5.6,1.4,9.5h7.21c0-5.03-.81-9.23-2.42-12.59-1.61-3.36-3.97-5.89-7.08-7.59-3.11-1.7-6.9-2.54-11.36-2.54h-.85c-2.94,0-5.7.43-8.27,1.27-2.57.85-4.85,2.28-6.83,4.28-1.98,2.01-3.52,4.72-4.62,8.14-1.1,3.42-1.65,7.68-1.65,12.76v7.04c0,5.03.54,9.26,1.61,12.68,1.07,3.42,2.6,6.13,4.58,8.14,1.98,2.01,4.27,3.44,6.87,4.28,2.6.85,5.4,1.27,8.4,1.27h.85c4.47,0,8.24-.86,11.32-2.59,3.08-1.72,5.43-4.27,7.04-7.63,1.61-3.36,2.42-7.51,2.42-12.42h-7.04c0,5.77-1.1,9.97-3.31,12.59-2.2,2.63-5.88,3.94-11.02,3.94-1.98,0-3.82-.28-5.51-.85-1.7-.56-3.19-1.54-4.49-2.93-1.3-1.38-2.32-3.31-3.05-5.76-.74-2.46-1.1-5.56-1.1-9.29v-10.09c0-3.73.37-6.81,1.1-9.24Z"/>
      <path class="cls-1" d="M258.44,510.07l-19.67,58.17h7.38l4.39-13.57h24.3l4.46,13.57h7.63l-19.76-58.17h-8.73ZM252.43,548.82l9.99-30.87h.34l10.15,30.87h-20.48Z"/>
      <path class="cls-1" d="M338.92,539.07c-2.04-1.19-4.28-2.15-6.74-2.88-2.46-.73-4.92-1.4-7.38-1.99-2.46-.59-4.71-1.26-6.74-1.99-2.04-.74-3.68-1.74-4.92-3.01-1.24-1.27-1.87-2.95-1.87-5.04s.56-3.87,1.7-5.17c1.13-1.3,2.67-2.25,4.62-2.84s4.14-.89,6.57-.89c2.6,0,4.88.35,6.83,1.06,1.95.71,3.5,1.75,4.66,3.14,1.16,1.38,1.74,3.09,1.74,5.13v1.53h6.87v-1.1c0-3.73-.91-6.75-2.71-9.07-1.81-2.32-4.24-4.02-7.29-5.09-3.05-1.07-6.42-1.61-10.09-1.61s-6.98.54-10.09,1.61c-3.11,1.07-5.6,2.73-7.46,4.96-1.87,2.24-2.8,5.1-2.8,8.61,0,3.05.62,5.57,1.87,7.55,1.24,1.98,2.9,3.55,4.96,4.71,2.06,1.16,4.31,2.11,6.74,2.84,2.43.74,4.88,1.41,7.33,2.03,2.46.62,4.71,1.34,6.74,2.16,2.03.82,3.69,1.91,4.96,3.27,1.27,1.36,1.91,3.17,1.91,5.43,0,2.6-.62,4.68-1.87,6.23-1.24,1.56-2.94,2.66-5.09,3.31-2.15.65-4.64.98-7.46.98s-5.33-.35-7.5-1.06c-2.18-.71-3.89-1.84-5.13-3.4-1.24-1.55-1.87-3.6-1.87-6.15v-.98c0-.31.03-.63.09-.98h-7.04c-.06.23-.09.5-.09.81v.81c0,3.17.58,5.84,1.74,8.01,1.16,2.18,2.74,3.94,4.75,5.3,2.01,1.36,4.32,2.33,6.95,2.93,2.63.59,5.41.89,8.35.89,4.01,0,7.66-.57,10.94-1.7,3.28-1.13,5.88-2.98,7.8-5.55,1.92-2.57,2.88-6.01,2.88-10.31,0-3.11-.64-5.67-1.91-7.67-1.27-2.01-2.93-3.6-4.96-4.79Z"/>
      <path class="cls-1" d="M380.89,510.07l-19.67,58.17h7.38l4.39-13.57h24.3l4.46,13.57h7.63l-19.76-58.17h-8.73ZM374.88,548.82l9.99-30.87h.34l10.15,30.87h-20.48Z"/>
    </g>
    <g>
      <path class="cls-1" d="M462.59,511.93c-1.03-.96-2.24-1.65-3.62-2.08-1.39-.42-2.87-.64-4.45-.64h-9.88v29.09h9.88c1.58,0,3.07-.22,4.45-.66,1.38-.44,2.59-1.14,3.62-2.1,1.03-.96,1.84-2.24,2.44-3.84.59-1.6.89-3.54.89-5.83v-4.24c0-2.32-.3-4.28-.89-5.87-.59-1.6-1.41-2.88-2.44-3.84ZM462.11,526.26c0,2.35-.34,4.17-1.02,5.47-.68,1.3-1.6,2.21-2.78,2.74-1.17.52-2.5.78-3.96.78h-5.94v-22.98h5.94c1.47,0,2.79.27,3.96.81,1.17.54,2.1,1.46,2.78,2.76.68,1.3,1.02,3.1,1.02,5.39v5.05Z"/>
      <polygon class="cls-1" points="479.49 535.16 479.49 524.95 492.42 524.95 492.42 521.94 479.49 521.94 479.49 512.27 493.87 512.27 494.42 509.22 475.76 509.22 475.76 538.3 494.71 538.3 494.16 535.16 479.49 535.16"/>
    </g>
    <g>
      <polygon class="cls-1" points="532.06 565.95 532.06 540 528.33 540 528.33 569.09 546.22 569.09 545.67 565.95 532.06 565.95"/>
      <path class="cls-1" d="M564.83,540l-9.84,29.09h3.69l2.2-6.78h12.15l2.23,6.78h3.82l-9.88-29.09h-4.37ZM561.83,559.38l5-15.43h.17l5.08,15.43h-10.24Z"/>
    </g>
  </g>
  <path class="cls-1" d="M967.73,502.18c-.39-1.9-1.81-5.59-2.83-7.24-.67-1.08-1.47-2.06-2.27-3.05-4.27-5.34-10.05-9.14-16.5-11.16-1.81-.57-3.61-1.21-5.51-1.39-4.35-.41-7.73,1.76-11.13,4.14-1.75,1.22-3.68,2.18-5.26,3.63-.02.02-.04.03-.06.05-1.87,1.75-4.02,4.43-5.21,6.71-.32.62-.58,1.27-.94,1.87-.92,1.52-2.08,2.88-3.05,4.37-1.02,1.58-1.31,3.04-1.79,4.8-.35,1.29-.87,2.45-.78,3.83.33,4.96,2.72,9.07,4.85,13.34,3.55,7.15,7.75,12.7,15.27,15.97,1.38.6,2.84.79,4.32.97,2.12.25,2.73.12,5.14-.15,1.06-.12,2.09-.43,3.15-.58,7.29-1.02,13.61-5.15,18.42-10.47,1.31-1.44,2.56-2.51,3.35-4.35.73-1.72,1.11-3.91,1.75-5.78.64-1.9,1.57-3.73,1.64-5.77.12-3.37-1.88-6.42-2.57-9.73ZM949.18,496.94c-.47,3.42-.77,4.43-4.93,7.03-2.2,1.37-4.35,2.04-6.45.7-1.21-.77-2.18-1.86-3.27-2.79-1.39-1.19-.91-2.78-1.26-4.45-.57-2.72.81-5.43,3.08-6.76,1.39-.81,2.77-1.8,4.46-1.75.84.03,1.73.1,2.53.37,1.03.34,1.82,1.1,2.57,1.86,1.51,1.52,3.58,3.55,3.27,5.8Z"/>
</svg>